<svg id="Layer_1" data-name="Layer 1" xmlns="http://www.w3.org/2000/svg" viewBox="0 0 22.65 21.56"><path d="M23.23,1.78a.78.78,0,0,0-1-.54L18.06,2.85a.8.8,0,0,0-.53.54l-3,9.87H4.43C4.08,12.19,2.3,5.79,2.3,5.79a.79.79,0,0,0-1-.54.83.83,0,0,0-.63,1l2.32,8a.85.85,0,0,0,.8.63H14c-.18.71-.45,1.69-.63,2.23H3.72a.79.79,0,0,0-.8.79.73.73,0,0,0,.8.72H14a.86.86,0,0,0,.8-.54l1.07-3.83h0c.18-.44,2.94-9.34,3.11-10,.63-.26,3.84-1.51,3.84-1.51a.68.68,0,0,0,.54-.71.31.31,0,0,0-.1-.27ZM4.16,19.21A1.78,1.78,0,0,0,2.39,21a1.84,1.84,0,0,0,1.77,1.78A1.86,1.86,0,0,0,6,21a1.8,1.8,0,0,0-1.79-1.79Zm9.63,0A1.79,1.79,0,0,0,12,21a1.85,1.85,0,0,0,1.78,1.78A1.85,1.85,0,0,0,15.57,21a1.79,1.79,0,0,0-1.78-1.79Z" transform="translate(-0.67 -1.22)" fill="#767676" fill-rule="evenodd"/></svg>