<svg id="Layer_1" data-name="Layer 1" xmlns="http://www.w3.org/2000/svg" viewBox="0 0 15.8 18.1"><path d="M19,3.16a1.74,1.74,0,0,0-.66-.2H6.84A1.76,1.76,0,0,0,5.09,4.71v.87H4.42a.33.33,0,0,0-.32.33V7.52a.32.32,0,0,0,.32.32h.67V9.05H4.42a.32.32,0,0,0-.32.32V11a.33.33,0,0,0,.32.33h.67v1.21H4.42a.32.32,0,0,0-.32.32v1.61a.32.32,0,0,0,.32.32h.67V16H4.42a.33.33,0,0,0-.32.33v1.61a.32.32,0,0,0,.32.32h.67v1.05a1.76,1.76,0,0,0,1.75,1.76H18.32a1.74,1.74,0,0,0,.66-.2,1.72,1.72,0,0,0,.4-.31,1.75,1.75,0,0,0,.52-1.24V4.71a1.75,1.75,0,0,0-.52-1.24A1.72,1.72,0,0,0,19,3.16ZM16.89,6.67a.34.34,0,0,0-.27-.12.36.36,0,0,0-.28.12L15.05,8V3.59h3.11V8Z" transform="translate(-4.1 -2.95)" fill="#737580"/></svg>