<svg id="Layer_1" data-name="Layer 1" xmlns="http://www.w3.org/2000/svg" viewBox="0 0 19.95 20.24"><path d="M20.67,1.88a11.42,11.42,0,0,0-1.89.19,5.74,5.74,0,0,0-1.66.44,8,8,0,0,0-1.5,1.33A29.19,29.19,0,0,0,13.1,7.09c-1,1.46-1.91,2.88-2.65,4.22-.67,1.19-1.36,2.51-2,3.91a7,7,0,0,0-1.5-1.44A3.29,3.29,0,0,0,5,13.1a3.35,3.35,0,0,0-1.93.77A2.29,2.29,0,0,0,2,15.68a2.89,2.89,0,0,0,1,1.78A22.27,22.27,0,0,1,5.2,20.28a10.57,10.57,0,0,0,.86,1.21,1.86,1.86,0,0,0,.73.48,4.48,4.48,0,0,0,1.4.15,4.34,4.34,0,0,0,1.92-.3A2.13,2.13,0,0,0,11,21a19.37,19.37,0,0,0,.89-2A50.32,50.32,0,0,1,16,11a32.18,32.18,0,0,1,5-6.32,4.76,4.76,0,0,0,.75-.8A1.31,1.31,0,0,0,22,3.15a1.22,1.22,0,0,0-.37-.89A1.26,1.26,0,0,0,20.67,1.88Z" transform="translate(-2.02 -1.88)" fill="#737580"/></svg>