<svg id="Layer_1" data-name="Layer 1" xmlns="http://www.w3.org/2000/svg" viewBox="0 0 18.31 12.93"><path d="M20.86,15.83a3.26,3.26,0,0,1-1.37,1,5.49,5.49,0,0,1-4,1.38c-.27,0-.55,0-.81,0a7.84,7.84,0,0,0,2.06.27c2.25,0,4.1-.9,4.39-2.08a1.65,1.65,0,0,0,0-.31,1.51,1.51,0,0,0-.12-.55A1.92,1.92,0,0,1,20.86,15.83Z" transform="translate(-2.84 -5.54)" fill="#767676"/><path d="M12.38,13.92a.87.87,0,0,0,.07.17.61.61,0,0,0,.07.14,2.23,2.23,0,0,0,.48.55,3.8,3.8,0,0,0,.44.31,6.5,6.5,0,0,0,3.29.8,6.76,6.76,0,0,0,3-.66l.13-.07.12-.07a3.8,3.8,0,0,0,.44-.31,2.23,2.23,0,0,0,.48-.55,1.23,1.23,0,0,0,.14-.31.56.56,0,0,0,0-.12,1.55,1.55,0,0,0,0-.31c0-1.32-2-2.39-4.43-2.39s-4.42,1.07-4.42,2.39v0a2,2,0,0,0-1.25,1.67,1.63,1.63,0,0,0,0,.31,2.32,2.32,0,0,0,1.23,1.36c.13.07.26.14.4.2a7,7,0,0,0,2.76.52,7.84,7.84,0,0,0,2.06-.27,7.09,7.09,0,0,1-.81,0c-1.88,0-3.49-.64-4.13-1.54a1.92,1.92,0,0,1-.18-.31,1.46,1.46,0,0,1-.11-.55,1.63,1.63,0,0,1,0-.31,1.73,1.73,0,0,0,.26.55,2.61,2.61,0,0,0,.27.31,5.75,5.75,0,0,0,3.86,1.22,7,7,0,0,0,2.76-.52l.4-.19a3.16,3.16,0,0,0,.7-.51,2.61,2.61,0,0,0,.27-.31,1.48,1.48,0,0,0,.3-.86s0-.08,0-.12a1.08,1.08,0,0,1-.07.31,1.59,1.59,0,0,1-.31.55,2.27,2.27,0,0,1-.31.31,2.89,2.89,0,0,1-.56.38l-.17.1a6.9,6.9,0,0,1-3,.63A5.94,5.94,0,0,1,13,15.4a2.27,2.27,0,0,1-.31-.31,1.59,1.59,0,0,1-.31-.55,1.08,1.08,0,0,1-.07-.31s0-.05,0-.07h0v-.05a1.73,1.73,0,0,1,0-.32A.56.56,0,0,0,12.38,13.92Zm1.71-.75h.33a.72.72,0,0,1,.09-.27,0,0,0,0,1,0,0,1.24,1.24,0,0,1,1-.58l.11.37.05.16,0,.17a.7.7,0,0,0-.39.18h.85a2.38,2.38,0,0,1,.17-.31,1.18,1.18,0,0,1,.23-.28,1.4,1.4,0,0,1,.22-.17,1.88,1.88,0,0,1,1.95.17.93.93,0,0,1,.21.31,2.29,2.29,0,0,1,.08.28h.37v.35H19a.8.8,0,0,1-.05.21,1,1,0,0,1-.12.23.89.89,0,0,1-.19.2,1.36,1.36,0,0,1-.58.25l-.37.05,0-.11-.13-.61h.12a.82.82,0,0,0,.5-.21H17.11a.59.59,0,0,1,0,.08l0,.08a1.15,1.15,0,0,1-.8.63,1.81,1.81,0,0,1-.55,0h0a1.34,1.34,0,0,1-1.06-.4.9.9,0,0,1-.21-.44h-.33Z" transform="translate(-2.84 -5.54)" fill="#767676"/><path d="M17.67,12.91a.5.5,0,0,0-.29.14l-.1.12h.92A.48.48,0,0,0,17.67,12.91Z" transform="translate(-2.84 -5.54)" fill="#767676"/><path d="M15.93,13.56l0,0h-.69A.44.44,0,0,0,15.93,13.56Z" transform="translate(-2.84 -5.54)" fill="#767676"/><path d="M12.65,10.27a3.26,3.26,0,0,1-1.37,1,5.49,5.49,0,0,1-4,1.38,7.09,7.09,0,0,1-.81,0,7.84,7.84,0,0,0,2.06.27c2.25,0,4.1-.9,4.39-2.08a1.55,1.55,0,0,0,0-.31,1.5,1.5,0,0,0-.11-.55A1.92,1.92,0,0,1,12.65,10.27Z" transform="translate(-2.84 -5.54)" fill="#767676"/><path d="M4.17,8.36l.06.17c0,.05,0,.1.08.14a2.23,2.23,0,0,0,.48.55,2.88,2.88,0,0,0,.44.31,6.5,6.5,0,0,0,3.29.8,6.72,6.72,0,0,0,3-.66.61.61,0,0,0,.14-.07l.12-.07a2.88,2.88,0,0,0,.44-.31,2.23,2.23,0,0,0,.48-.55,1.23,1.23,0,0,0,.14-.31.56.56,0,0,0,0-.12,1.55,1.55,0,0,0,0-.31c0-1.32-2-2.39-4.42-2.39S4.09,6.61,4.09,7.93A.07.07,0,0,0,4.1,8,2.05,2.05,0,0,0,2.84,9.65a1.55,1.55,0,0,0,0,.31,2.33,2.33,0,0,0,1.23,1.37,3.71,3.71,0,0,0,.4.19,7,7,0,0,0,2.76.53,7.43,7.43,0,0,0,2.06-.28,7.09,7.09,0,0,1-.81,0,5.2,5.2,0,0,1-4.13-1.54A1.92,1.92,0,0,1,4.21,10a1.29,1.29,0,0,1-.12-.54,1.75,1.75,0,0,1,0-.32,1.54,1.54,0,0,0,.26.55,1.93,1.93,0,0,0,.27.31,5.76,5.76,0,0,0,3.86,1.23,7,7,0,0,0,2.76-.53l.4-.19a3.16,3.16,0,0,0,.7-.51,2.61,2.61,0,0,0,.27-.31,1.73,1.73,0,0,0,.26-.55,1.55,1.55,0,0,0,0-.31V8.67a1.23,1.23,0,0,1-.07.32,1.64,1.64,0,0,1-.31.54,2.33,2.33,0,0,1-.31.32,3.4,3.4,0,0,1-.56.37,1,1,0,0,1-.17.1,6.9,6.9,0,0,1-3,.63,6,6,0,0,1-3.73-1.1,2.33,2.33,0,0,1-.31-.32A1.64,1.64,0,0,1,4.17,9a1.23,1.23,0,0,1-.07-.32s0-.05,0-.07h0a.11.11,0,0,1,0,0,1.75,1.75,0,0,1,0-.32A.56.56,0,0,0,4.17,8.36Zm1.7-.75H6.2a1.14,1.14,0,0,1,.09-.26l0,0a1.22,1.22,0,0,1,1-.58l.11.37,0,.16.06.17a.67.67,0,0,0-.39.18h.85A2.38,2.38,0,0,1,8.1,7.3,1.42,1.42,0,0,1,8.32,7l.22-.17a1.9,1.9,0,0,1,2,.17,1.05,1.05,0,0,1,.21.31,2.29,2.29,0,0,1,.08.28h.36V8H10.8a.8.8,0,0,1-.05.21,1,1,0,0,1-.12.23.9.9,0,0,1-.19.2,1.41,1.41,0,0,1-.58.25,2.07,2.07,0,0,1-.37.05l0-.11-.12-.61h.12A.85.85,0,0,0,10,8H8.9a.3.3,0,0,1,0,.08.3.3,0,0,1,0,.08A1.09,1.09,0,0,1,8,8.75a2.2,2.2,0,0,1-.55.06h0A1.42,1.42,0,0,1,6.41,8.4.93.93,0,0,1,6.21,8H5.87Z" transform="translate(-2.84 -5.54)" fill="#767676"/><path d="M9.46,7.35a.5.5,0,0,0-.29.14.63.63,0,0,0-.1.12H10A.48.48,0,0,0,9.46,7.35Z" transform="translate(-2.84 -5.54)" fill="#767676"/><path d="M7.72,8l0,0H7.06A.44.44,0,0,0,7.72,8Z" transform="translate(-2.84 -5.54)" fill="#767676"/></svg>